<svg width="302" height="361" viewBox="0 0 302 361" fill="none" xmlns="http://www.w3.org/2000/svg">
<path fill-rule="evenodd" clip-rule="evenodd" d="M97.7647 3.90816C101.892 2.12574 106.395 1.09387 110.898 1C113.853 1.09387 116.808 1.42214 119.81 1.60987C126.658 1.70361 133.084 4.5179 139.463 6.81618C142.23 7.61352 145.091 7.23832 147.905 7.51979C153.346 8.03566 158.928 7.61352 164.228 9.20833C166.761 9.91181 169.2 11.0375 171.545 12.304C177.642 15.5404 184.584 16.4315 191.057 18.5421C196.169 19.7148 201.141 22.06 204.753 25.953C207.896 29.5177 211.273 32.9887 215.4 35.4276C219.012 38.0543 222.483 40.8685 225.719 43.9173C229.565 47.5289 233.13 51.6564 235.053 56.6283C236.085 59.1142 237.07 62.1161 239.79 63.1949C243.308 64.3205 246.357 66.4781 249.406 68.5419C252.877 70.981 256.347 73.4199 259.255 76.5157C260.663 78.0165 261.929 79.7051 262.586 81.6751C263.711 85.0522 265.775 88.0071 268.214 90.5399C269.199 91.6187 270.278 92.9321 270.325 94.4798C270.419 95.5587 269.621 96.6844 268.542 96.872C266.01 95.6525 263.664 93.3542 260.616 93.8233C260.616 95.2304 260.569 96.7313 261.179 98.0447C261.788 99.4987 263.149 100.484 264.274 101.516C269.997 106.581 275.203 112.35 281.91 116.197C281.207 113.288 277.83 111.553 278.064 108.364C281.207 107.707 284.49 108.364 287.679 108.317C289.978 108.27 292.229 109.255 293.73 111.037C296.028 113.711 297.107 117.182 297.811 120.606C298.749 125.999 299.921 131.347 300.906 136.74C301.282 138.148 300.484 139.555 299.312 140.305C296.638 142.088 292.698 142.65 290.071 140.446C286.601 137.35 283.27 134.114 279.8 131.018C278.158 129.658 277.548 127.5 276.704 125.624C276.141 124.452 276.188 123.185 276.329 121.919C277.642 121.778 278.955 121.684 280.222 121.309C278.533 118.917 276.047 117.275 273.749 115.493C265.916 109.724 256.91 105.409 250.531 97.9039C248.937 96.1684 248.186 93.7764 246.216 92.3692C242.558 89.6019 237.727 89.3674 233.318 89.5081C229.19 89.7426 224.734 90.6338 221.638 93.5888C220.184 94.8552 219.528 96.7783 218.214 98.1384C217.229 99.3579 216.057 100.39 215.072 101.562C213.852 103.063 214.509 105.174 213.759 106.863C211.366 112.444 206.254 116.15 203.393 121.45C203.862 121.825 204.284 122.2 204.753 122.575C202.361 123.701 199.734 123.795 197.201 124.123C193.777 124.592 190.307 124.498 186.836 124.498C184.959 124.498 183.177 123.842 181.254 123.889C175.813 123.795 170.794 126.703 165.307 126.515C163.055 126.609 160.71 126.14 158.834 124.827C153.534 120.934 145.935 119.761 139.838 122.622C139.181 122.904 138.478 122.763 137.821 122.857C136.977 123.467 136.648 124.498 136.085 125.343C134.538 128.298 131.583 130.502 131.067 133.973C130.598 137.444 130.879 140.962 130.598 144.433C131.676 144.902 132.708 145.652 133.037 146.872C133.834 149.452 134.022 152.172 135.1 154.705C136.977 159.442 140.963 163.054 145.185 165.727C148.515 167.838 152.314 168.917 155.926 170.418C157.896 171.121 159.819 172.341 162.023 172.106C169.622 171.731 177.267 171.59 184.866 171.965C187.352 173.513 189.415 175.624 191.151 177.922C190.166 180.08 189.228 182.519 189.884 184.911C190.4 186.74 191.761 188.523 191.057 190.539C188.899 194.855 185.616 198.748 184.397 203.485C183.646 206.065 184.35 209.067 186.46 210.755C189.134 212.819 192.37 214.367 195.794 214.554C198.655 214.695 201.329 212.96 204.237 213.429C205.926 213.804 207.849 215.352 207.473 217.275C207.192 218.87 205.503 219.479 204.237 220.23C201.282 221.778 198.186 224.029 197.53 227.594C200.907 228.766 204.331 229.892 207.849 230.267C210.475 231.112 211.648 233.832 212.727 236.083C213.946 238.71 216.151 241.43 214.884 244.432C213.008 248.232 210.804 251.89 209.537 255.971C209.162 257.049 209.35 258.41 210.335 259.16C211.789 260.192 213.618 260.755 214.697 262.303C215.635 263.428 215.025 265.07 215.728 266.336C216.807 268.635 219.106 269.995 221.263 271.168C225.109 272.997 229.002 274.685 232.895 276.468C234.068 276.843 234.302 278.203 234.772 279.188C235.71 281.393 236.413 284.066 238.758 285.098C240.963 285.802 243.167 284.723 245.09 283.691C245.231 285.145 244.903 286.74 245.606 288.053C246.732 290.539 247.811 293.025 248.186 295.745C248.468 299.779 247.342 303.766 246.029 307.518C244.997 310.755 247.576 313.616 247.623 316.805C247.952 320.135 246.451 323.419 244.012 325.623C240.494 328.813 236.976 332.002 233.411 335.192C226.563 340.633 218.402 344.291 209.912 346.308C206.066 347.387 202.642 349.544 199.594 352.077C197.67 353.672 195.325 354.704 192.839 355.126C188.383 355.736 183.834 354.469 179.425 355.36C177.877 355.642 176.376 356.252 174.922 356.767C174.781 357.471 174.641 358.128 174.5 358.831C171.357 359.722 168.074 359.957 164.884 360.473C161.695 360.614 158.552 360.098 155.41 359.769C155.691 358.034 156.489 356.017 155.316 354.469C154.284 353.531 152.783 353.578 151.564 353.062C149.969 352.452 148.327 351.092 148.515 349.216C148.703 347.246 149.922 345.604 150.626 343.822C151.188 342.274 150.954 340.633 150.766 339.038C145.841 341.148 140.166 342.978 134.819 341.289C130.973 339.788 127.361 337.678 123.562 335.989C119.622 334.3 115.072 335.332 111.179 333.362C110.194 332.8 108.412 332.377 108.553 330.923C109.022 327.734 110.429 324.779 112.164 322.105C110.147 322.34 107.802 322.997 106.02 321.683C103.909 320.417 103.815 317.743 102.502 315.867C101.001 313.194 98.0931 311.177 94.9505 311.411C92.1832 311.505 89.0406 311.552 86.7893 313.334C85.6166 314.085 86.3671 315.492 86.9769 316.336C87.9618 317.79 89.8849 318.681 90.1664 320.558C89.9786 322.434 88.0557 323.419 86.4609 323.794C83.975 324.357 81.067 324.685 78.9563 322.95C76.142 320.605 74.172 317.462 71.4985 314.929C66.9956 310.661 62.9151 306.017 58.4122 301.749C57.6149 300.905 56.4892 300.201 56.4892 298.935C56.067 295.37 55.9264 291.805 55.8794 288.194C55.8325 284.488 56.5361 280.689 55.2697 277.124C54.097 273.091 51.0483 269.854 47.6712 267.462C44.9039 265.352 42.1834 263.241 39.4161 261.13C37.9621 259.911 35.9451 260.427 34.1628 260.239C33.084 259.066 32.6619 257.425 31.8645 256.018C28.8627 255.126 25.1104 255.971 22.8121 253.391C21.7802 251.702 22.2491 249.404 20.9359 247.762C19.6226 245.558 16.7614 246.027 14.6039 245.746C12.5869 245.746 11.5081 243.494 11.8833 241.759C12.3993 238.522 14.0879 235.38 13.7127 232.003C12.9621 229.657 12.3055 227.312 11.9303 224.873C12.0711 222.669 15.4949 223.419 15.8233 221.308C16.2924 219.151 16.2924 216.337 14.3224 214.976C12.0241 213.804 9.3037 214.789 6.91154 213.945C4.98846 213.288 3.15925 212.021 2.17417 210.192C1.6583 209.067 2.87778 208.129 3.76898 207.847C5.55127 207.378 7.38061 207.566 9.1629 207.425C14.1817 207.284 19.1066 204.845 22.3899 201.046C23.5155 199.78 22.9058 197.997 22.4367 196.59C21.4518 194.057 20.373 191.337 18.1216 189.601C15.8233 187.772 13.056 186.318 10.101 186.318C8.08409 186.271 6.48941 184.536 6.16114 182.613C5.55127 180.69 7.52128 179.376 7.89649 177.641C8.78769 173.654 9.6789 169.386 8.08409 165.446C6.63007 161.271 2.50257 158.598 1.3299 154.283C0.344955 151.656 1.79897 149.029 2.64324 146.59C5.45753 138.851 8.88156 131.3 12.0711 123.701C14.2285 118.636 16.6676 113.57 17.5588 108.082C18.0747 105.315 17.3711 102.5 18.0278 99.7332C18.3092 98.0447 19.5287 96.4029 18.872 94.6206C18.4968 94.3392 18.0747 94.1046 17.6056 93.917C13.9003 92.4161 10.2886 90.5869 6.34874 89.7895C4.66019 89.3674 2.40871 88.8514 1.8459 86.9283C1.8459 85.2867 3.29991 84.2079 4.23805 82.9884C4.56632 80.9247 4.42566 78.4856 6.20794 77.0316C8.69396 75.1554 11.1329 73.2323 13.2905 70.981C15.6825 68.7764 19.1066 68.3074 22.2491 68.2606C24.2661 68.2606 24.782 65.3056 26.9396 65.7277C31.114 66.4312 35.3823 66.7596 39.6506 66.8065C40.6825 66.7596 41.5737 67.3224 42.418 67.7915C44.3879 66.2905 46.1233 64.3675 47.1084 62.0692C47.4367 61.5064 47.6243 60.7558 48.234 60.4276C51.2828 58.6451 55.0821 57.5195 58.5529 58.6921C60.7105 59.4425 62.1645 61.3188 63.7124 62.8665C66.4798 64.9772 70.0914 66.5251 73.6092 65.6339C75.7668 64.7896 78.0181 63.9923 80.4103 64.086C83.2714 63.8516 85.945 65.0241 88.4309 66.2905C90.8698 67.5569 92.6523 69.7615 95.1381 70.8402C97.624 71.3562 100.298 69.5738 100.767 67.0879C101.189 64.8365 100.626 62.5382 100.063 60.3337C99.0311 57.1911 97.671 53.861 95.0443 51.7034C92.5584 49.5927 88.853 50.3432 86.4609 48.0917C84.8662 46.6377 86.5078 44.058 84.9599 42.5102C82.2395 39.6959 78.2057 38.2419 74.3128 38.4295C69.3409 38.6171 64.3691 40.0242 60.2415 42.9323C59.022 43.8234 57.0989 44.1049 55.8794 42.9791C53.7687 41.2438 53.5342 38.2888 53.0183 35.8028C54.8475 33.9267 56.6768 32.0036 57.9901 29.7053C57.2865 28.0637 55.6918 25.6717 57.521 24.2175C59.8662 22.8104 62.8681 23.5141 65.4947 23.6078C64.885 20.2307 67.0895 17.182 69.8099 15.3996C73.8437 12.8198 78.1588 10.7091 82.6616 9.0206C87.7273 7.42592 92.746 5.64351 97.7647 3.90816V3.90816Z" fill="#FDB5A2" stroke="black" stroke-width="0.0331"/>
<path fill-rule="evenodd" clip-rule="evenodd" d="M99.3595 4.61162C103.018 3.11068 106.958 2.2664 110.898 2.17267C114.04 2.2664 117.136 2.64174 120.279 2.82934C125.157 2.87627 129.8 4.70549 134.397 6.25337C136.977 7.19138 139.556 8.41085 142.324 8.50472C147.483 8.59846 152.642 9.02059 157.849 9.25513C162.023 9.44273 166.151 10.5685 169.809 12.5854C173.28 14.5084 177.033 15.9625 180.879 16.9475C184.819 17.9324 188.712 19.1519 192.605 20.2307C197.389 21.544 201.845 24.2175 205.034 28.0167C207.427 30.7841 210.288 33.0824 213.008 35.4745C209.35 35.6152 205.738 34.5364 202.502 32.8948C198.984 31.2062 195.888 27.7354 191.667 28.2513C191.291 29.2364 190.916 30.1744 190.541 31.1125C188.102 30.1744 185.944 28.5328 184.819 26.1406C179.425 25.9999 173.984 25.7654 168.59 25.6247C166.808 25.7185 165.354 24.2175 164.791 22.6228C164.228 20.3715 167.324 19.3396 167.089 17.1351C166.854 15.8217 165.588 14.9305 164.322 14.7429C158.646 13.6641 152.783 14.1332 147.014 14.0394C143.074 14.1801 139.181 13.6641 135.288 13.3828C128.909 12.8198 122.483 12.3509 116.057 11.8349C111.32 11.6473 106.348 12.5854 102.408 15.3058C104.566 18.3545 107.896 21.1219 111.836 21.075C112.68 21.075 113.478 21.1219 114.322 21.2158C111.789 22.7635 108.881 23.7486 105.926 24.2645C101.517 24.7805 97.0612 24.3583 92.746 23.6078C90.2132 23.1388 87.6335 23.0919 85.0538 23.2326C82.1926 23.3732 79.3315 24.5929 77.5491 26.8911C76.3765 28.4858 74.5004 29.7522 72.4366 29.377C69.8569 28.9549 67.7462 27.1725 65.9168 25.4371C66.1983 25.2495 66.808 24.8742 67.0895 24.6866C66.4328 22.5759 66.5267 20.09 68.0744 18.4015C70.6542 15.4465 74.4534 13.9456 77.8775 12.1633C82.0519 10.0526 86.6954 9.20833 91.0574 7.56658C93.8248 6.58164 96.6391 5.73736 99.3595 4.61162V4.61162Z" fill="#435268" stroke="#99CC99" stroke-width="0.0331"/>
<path fill-rule="evenodd" clip-rule="evenodd" d="M104.003 15.6341C107.802 13.5704 112.211 12.773 116.526 13.0544C124.219 13.6641 131.864 14.2271 139.556 14.8837C147.436 15.728 155.457 14.5553 163.337 15.728C164.322 15.9625 165.963 16.1969 165.87 17.5572C165.354 19.3396 163.29 20.5591 163.571 22.6229C164.04 24.5929 165.87 26.1406 167.746 26.7504C173.187 26.9849 178.581 27.0788 184.021 27.3133C185.475 30.0337 188.196 31.7223 191.057 32.6135C191.714 31.5347 192.23 30.4089 192.745 29.2364C195.185 29.6585 197.248 31.0187 199.265 32.3789C202.408 34.4427 205.973 35.8967 209.678 36.5064C211.413 36.7879 213.196 36.5534 214.978 36.741C217.136 37.9605 218.965 39.6959 220.935 41.1969C225.954 45.5589 231.16 50.2024 233.693 56.5345C234.772 59.3488 235.85 62.6789 238.805 64.1329C244.059 65.8215 248.468 69.2924 252.923 72.5287C256.394 75.2493 260.194 78.2511 261.601 82.6132C262.867 86.1779 265.306 89.1329 267.839 91.8533C268.824 92.8852 269.199 94.2455 269.059 95.6525C266.291 94.4799 263.758 92.1348 260.616 92.51C259.631 93.1197 259.349 94.3392 259.443 95.418C259.396 97.5287 260.381 99.5924 261.929 101C264.931 103.673 267.839 106.347 270.747 109.114C273.655 112.022 277.032 114.461 280.409 116.759C281.3 117.369 282.238 117.838 283.224 118.166C283.693 114.555 280.597 112.21 279.096 109.349C282.004 109.161 284.865 109.442 287.726 109.489C290.025 109.489 292.135 110.849 293.449 112.679C295.231 115.211 296.075 118.213 296.685 121.215C297.576 126.093 298.561 130.924 299.499 135.756C299.64 136.647 299.921 137.585 299.405 138.382C298.139 140.118 295.841 140.587 293.824 140.587C292.041 140.634 290.634 139.414 289.415 138.288C286.554 135.662 283.739 133.035 280.878 130.408C278.721 128.579 277.642 125.718 277.314 122.951C278.533 122.763 280.175 123.091 280.925 121.825C281.629 120.746 280.409 119.62 279.753 118.87C271.169 110.849 259.678 106.44 251.798 97.5756C249.968 95.6056 249.077 92.8852 246.779 91.3373C242.933 88.4762 237.914 88.1947 233.318 88.3355C228.862 88.5699 224.077 89.555 220.747 92.6976C219.106 94.1046 218.449 96.2623 216.995 97.8101C215.869 99.0766 214.509 100.108 213.665 101.609C212.82 103.251 213.243 105.221 212.398 106.863C210.241 111.319 206.535 114.742 203.627 118.729C202.83 119.761 202.361 121.028 201.986 122.294C196.263 123.185 190.4 123.842 184.678 122.998C177.173 121.028 170.185 126.609 162.68 125.108C160.053 124.733 158.224 122.669 155.879 121.731C151.095 119.62 145.513 119.245 140.541 120.981C141.104 119.011 141.479 116.994 142.371 115.118C142.887 113.945 143.918 113.007 144.434 111.834C144.575 109.958 144.387 107.848 143.074 106.44C141.948 105.502 140.4 105.643 139.04 105.502C136.977 105.502 134.819 104.986 133.365 103.439C131.958 102.032 131.583 100.015 131.113 98.1384C129.519 98.5605 127.361 98.7951 126.798 100.624C126.658 102.641 127.267 104.611 128.018 106.44C130.598 113.007 132.802 119.808 133.13 126.938C131.911 125.671 131.489 124.029 130.645 122.575C129.144 119.949 126.845 117.651 123.984 116.619C122.296 115.962 120.185 115.165 119.716 113.195C119.481 111.272 120.607 109.489 120.795 107.613C121.451 103.955 119.012 100.531 119.904 96.9189C120.185 94.3861 122.202 92.3224 124.641 91.7594C127.08 91.2436 129.566 90.9621 132.052 90.6806C132.005 91.994 131.02 93.6356 132.333 94.6676C133.177 95.7463 134.678 95.1365 135.851 95.0897C139.65 94.4799 144.153 94.4799 146.826 91.2905C143.965 90.7276 141.057 89.6487 138.853 87.6319C137.07 85.7088 138.478 83.0354 138.196 80.7371C134.115 81.0184 130.082 80.0335 126.095 79.3299C124.125 78.9547 122.436 77.9697 120.748 76.9378C121.264 76.2342 122.108 75.6714 122.108 74.7333C122.108 73.4669 121.592 72.2943 121.217 71.0747C125.016 74.0297 128.487 77.5476 132.99 79.3768C134.819 80.1272 136.836 80.0804 138.712 79.6113C138.102 78.0165 136.789 76.3749 137.446 74.6394C138.665 72.8571 141.292 72.4819 142.183 70.4181C142.417 69.011 141.245 67.7915 140.166 67.1348C137.164 65.4932 133.553 65.8684 130.316 66.3375C130.269 65.3524 130.504 64.2268 129.8 63.4295C128.862 62.3507 127.502 61.8816 126.236 61.3656C121.498 59.5833 116.48 58.5982 111.461 58.0824C109.866 57.9417 108.271 57.5663 106.817 56.9097C109.397 54.6114 112.539 53.0167 115.494 51.2812C115.213 47.6227 111.32 46.4032 108.412 45.3244C106.63 44.8085 106.207 42.9324 105.879 41.3375C105.598 40.0242 104.05 39.7898 102.971 39.9774C99.2188 40.6809 95.5133 41.7597 91.6672 41.619C89.791 41.5721 87.9618 41.7128 86.0857 41.5252C84.5378 40.7747 83.3183 39.4614 81.6767 38.7578C77.2677 36.5064 72.0613 37.1162 67.4178 38.2889C64.5097 39.0393 61.8832 40.3995 59.3972 42.0412C58.4592 42.7916 57.0051 42.6978 56.2077 41.7128C55.0351 40.165 54.7537 38.1013 54.2847 36.225C56.1139 34.2082 58.037 32.1913 59.1626 29.6585C59.0689 28.1106 56.8175 26.2345 58.6937 24.9211C60.5229 24.499 62.3991 24.7805 64.2283 24.7335C65.5886 27.1257 67.8399 28.8142 70.2321 30.0337C72.2958 31.1125 75.0162 30.9717 76.7986 29.424C78.3465 28.0168 79.5191 26.0469 81.6298 25.2963C85.5697 23.7017 89.9786 24.3114 94.0593 25.015C99.7347 25.8593 105.832 26.2345 111.32 24.0769C112.915 23.4671 114.509 22.6698 115.588 21.2626C114.228 19.2458 111.742 20.1839 109.725 19.621C107.474 18.9175 105.645 17.2757 104.003 15.6341V15.6341Z" fill="#435268" stroke="#99CC99" stroke-width="0.0331"/>
<path fill-rule="evenodd" clip-rule="evenodd" d="M93.5435 42.7447C97.2958 42.6509 100.861 41.3375 104.566 41.1499C104.941 42.9791 105.176 45.3244 107.146 46.1686C109.772 47.2944 113.102 47.7635 114.322 50.7184C111.179 52.4539 107.943 54.1424 105.269 56.6283C106.207 58.5982 108.553 58.9266 110.476 59.1612C116.104 59.677 121.686 60.8497 126.939 62.9604C127.877 63.3356 128.909 63.8984 129.191 64.9303C128.909 65.8684 128.346 66.7127 127.924 67.6039C131.583 67.6976 135.382 66.3375 138.9 67.8852C139.885 68.2606 141.245 69.1048 140.87 70.418C139.744 72.0598 137.211 72.1066 136.367 74.0297C135.71 75.5306 136.461 77.2192 136.789 78.7201C131.958 78.6264 128.206 75.1554 124.594 72.3411C123.046 71.2623 121.78 69.3862 119.716 69.4331C119.81 71.3093 120.466 73.0447 120.982 74.7802C120.279 75.2493 119.528 75.6245 119.012 76.2342C119.997 78.4856 122.577 79.4237 124.735 80.2211C128.815 81.1592 132.943 81.8157 137.07 82.0972C136.836 83.9734 136.226 86.0371 137.399 87.7257C138.993 89.8833 141.667 90.7275 143.965 91.994C141.104 93.4012 137.915 93.5888 134.819 94.0109C134.069 94.1516 133.365 93.8701 132.661 93.6356C133.037 92.3692 133.318 91.1028 133.318 89.7426C131.77 89.4611 130.222 89.6019 128.722 89.8833C126.47 90.2585 124.031 90.3054 122.061 91.5718C120.889 92.2285 120.091 93.2604 119.294 94.2454C115.588 91.7126 110.429 92.1348 106.723 94.3861C104.144 93.3542 101.705 92.1348 99.0781 91.1966C95.3258 90.0709 91.292 92.0878 89.0876 95.1365C87.5397 97.6225 88.7592 100.718 90.3071 102.923C91.6672 104.752 92.5115 106.91 92.8868 109.208C90.4008 108.504 88.0088 107.425 86.0857 105.69C84.022 103.908 83.5998 100.812 81.2077 99.3111C79.3785 98.0915 76.9863 99.0296 75.4854 100.39C72.9525 102.782 70.6073 105.924 70.6542 109.63C69.4348 108.223 68.356 106.722 67.3241 105.221C66.9957 104.799 66.7612 104.142 66.1514 104.048C63.8062 103.486 61.3672 103.392 59.1159 102.5C59.4911 101.422 60.1008 100.437 60.1947 99.3111C58.8814 97.7632 56.2547 97.2472 55.9733 94.9958C55.3635 92.8382 54.4254 90.7275 53.1121 88.9453C52.5962 88.0541 51.236 88.5231 50.8608 89.3205C50.0634 90.6338 49.4535 92.0878 48.7031 93.448C45.8888 93.3542 42.8871 92.2754 41.8083 89.4611C40.8701 87.8195 42.5118 86.5531 43.4499 85.4743C42.3711 84.7239 41.2453 84.0203 40.1665 83.2229C41.4799 82.0503 42.2304 80.3149 41.9489 78.5325C41.7144 76.4218 41.6675 73.5607 39.4631 72.5287C37.0709 71.6845 34.7257 73.1386 32.5213 73.889C30.7389 73.8421 29.0034 73.0917 27.2211 73.7014C24.8759 74.4518 23.5625 76.7033 22.2961 78.6732C19.1536 78.7201 15.4013 78.0165 12.9154 80.4556C11.602 81.8627 13.0091 83.5981 13.1967 85.146C13.1967 86.9283 12.2118 88.4762 11.4144 89.9771C8.60014 88.8514 5.26998 88.8514 2.87782 86.9283C3.39383 85.3336 4.80091 84.3955 5.69211 83.0821C5.78585 81.206 5.69211 78.9546 7.23986 77.5944C8.694 76.5625 10.148 75.5306 11.4612 74.3111C13.1967 72.9041 14.6039 70.981 16.8083 70.2774C18.7784 69.4331 20.936 69.6207 22.9997 69.3394C24.5944 69.1048 25.2511 66.9472 26.9396 67.0879C31.1141 67.557 35.2886 67.9322 39.4631 68.026C40.448 67.8852 40.8701 68.9172 41.4799 69.4331C43.4968 68.4951 45.373 67.2287 46.6863 65.3993C47.6243 64.2268 48.0465 62.7728 48.8438 61.5064C51.705 59.7709 55.3635 58.8327 58.5529 60.0524C60.8982 60.9434 62.0239 63.5232 64.1815 64.6959C67.2772 66.572 71.0764 68.026 74.6411 66.6188C78.2996 65.118 82.6617 64.6959 86.2733 66.572C89.4159 67.7446 91.6204 70.465 94.5754 71.8722C97.6241 72.8102 101.236 70.7464 101.845 67.6039C102.69 63.7577 101.236 59.8178 99.8286 56.2999C98.4684 53.3919 96.4515 50.39 93.2151 49.3581C91.1514 48.7015 88.6185 48.7015 87.0706 46.9192C86.6954 45.6058 86.8831 44.1518 86.7424 42.7915C88.9937 42.7447 91.292 42.7915 93.5435 42.7447V42.7447Z" fill="#435268" stroke="#99CC99" stroke-width="0.0331"/>
<path fill-rule="evenodd" clip-rule="evenodd" d="M32.5213 75.0615C34.5381 74.405 36.6488 72.9978 38.9001 73.6075C40.6825 74.5457 40.5419 76.844 40.7764 78.5325C41.0577 80.4087 39.51 81.6751 38.947 83.2229C39.3692 84.3486 40.4949 84.9584 41.3861 85.7088C40.8232 86.7876 39.9321 87.9602 40.448 89.2735C41.5268 92.8382 45.373 94.8082 48.9377 94.6676C50.5323 93.3542 51.0953 91.2905 52.1272 89.6019C53.5812 91.9002 54.613 94.3861 55.3166 96.9659C56.4423 98.0447 57.7556 98.842 58.9751 99.7332C58.5529 100.671 58.1308 101.562 57.7556 102.454C59.6318 105.033 63.1964 104.236 65.8701 105.268C67.6054 107.66 69.2472 110.099 71.3109 112.163C67.9808 114.227 64.6974 116.431 61.3672 118.589C59.6318 119.667 58.2716 121.45 58.2247 123.56C58.1308 126.844 60.007 129.705 61.977 132.144C63.5249 134.208 65.8701 135.521 67.1833 137.772C67.7462 138.71 68.1684 139.742 68.6842 140.727C72.1552 140.071 75.5792 137.819 76.6111 134.255C77.8775 131.112 76.3766 127.313 78.4403 124.405C79.1909 123.044 80.9262 122.998 82.2865 123.091C86.8361 123.514 91.4328 125.765 93.9187 129.752C95.8886 133.082 97.7179 136.506 98.9843 140.211C96.0294 140.727 92.4647 140.821 90.4947 143.448C88.9 145.605 90.2601 148.279 91.0575 150.436C88.0557 151.656 84.7724 152.782 82.6147 155.361C81.5829 157.144 81.0201 159.208 79.8943 160.99C78.3934 161.084 76.7518 161.224 75.673 162.444C72.5773 165.68 70.6073 169.808 67.84 173.326C66.4798 174.873 64.7913 175.952 63.1027 177.125C61.8832 177.969 61.4611 179.47 60.9451 180.783C62.1646 182.66 63.5249 184.536 63.7125 186.881C62.3522 187.303 60.992 187.678 59.6318 188.054C59.069 185.568 57.7087 183.175 55.4573 181.862C54.0502 180.971 52.1741 180.737 50.6731 181.534C48.5155 183.082 47.4837 186.506 44.4348 186.506C42.3241 186.834 40.2604 186.881 38.1497 186.881C36.1329 186.881 33.9283 187.866 33.2717 189.883C32.1459 193.025 32.615 196.402 32.6619 199.686C29.8946 199.498 27.0803 199.264 24.2661 199.029C23.1404 194.808 21.4518 190.258 17.6526 187.725C15.5889 186.365 13.1967 185.146 10.6169 185.192C9.20987 185.192 7.89653 184.254 7.52132 182.894C6.72398 181.065 8.78773 179.658 9.0692 177.922C10.0541 173.56 10.9923 168.729 9.02227 164.508C7.52132 160.615 3.62836 158.082 2.50261 154.001C1.75207 151.562 3.06542 149.217 3.86276 146.919C6.81772 138.851 10.4293 130.971 13.7596 123.044C15.5419 118.729 17.6057 114.555 18.5438 109.958C19.5757 105.971 18.0747 101.656 19.8102 97.7632C20.7014 96.2622 20.5138 94.0577 18.919 93.1666C16.8553 92.0878 14.6507 91.3842 12.54 90.3993C13.5251 88.3823 14.9322 86.131 14.0879 83.8796C13.9003 82.9415 13.056 81.8157 13.994 81.0653C16.5738 79.1892 19.9978 80.0334 22.9528 79.7989C24.1253 77.8758 25.2511 75.6245 27.5024 74.7802C29.1442 74.1235 30.8327 74.9678 32.5213 75.0615V75.0615Z" fill="#435268" stroke="#99CC99" stroke-width="0.0331"/>
<path fill-rule="evenodd" clip-rule="evenodd" d="M73.5153 85.7088C76.142 83.2229 79.3784 80.5963 83.2244 80.8308C84.913 80.9247 86.883 81.3936 87.9149 82.8008C87.4928 85.3336 85.8981 87.4913 83.9281 89.0859C82.521 90.0241 83.0838 91.9002 82.474 93.2604C81.4422 94.5268 79.613 94.2922 78.1588 94.5737C76.0481 94.8552 74.3596 96.2623 72.3897 96.9659C72.7649 95.418 73.9374 93.917 73.3277 92.2285C72.9056 90.1178 71.5924 87.4912 73.5153 85.7088V85.7088Z" fill="#435268" stroke="#010101" stroke-width="0.0331"/>
<path fill-rule="evenodd" clip-rule="evenodd" d="M75.5792 85.4274C77.6429 83.7857 79.9412 81.9565 82.7555 82.0035C84.1157 81.9565 85.3821 82.4724 86.6485 82.8945C86.3202 84.0203 85.945 85.1928 85.1945 86.131C84.3502 87.3035 83.0368 88.054 82.1926 89.2266C81.5359 90.2585 81.7236 91.5249 81.3483 92.6037C79.2846 93.5418 76.9393 93.3542 74.8756 94.3392C74.8756 92.2754 73.9374 90.3993 73.7498 88.3823C73.5622 87.0691 74.7817 86.2248 75.5792 85.4274V85.4274Z" fill="#435268" stroke="#99CC99" stroke-width="0.0331"/>
<path fill-rule="evenodd" clip-rule="evenodd" d="M93.0275 93.0258C94.7629 91.8533 97.0143 91.7126 98.9843 92.3224C101.095 93.3542 103.252 94.3861 105.504 95.2304C105.692 96.1684 105.692 97.2941 106.395 98.0447C107.239 99.0296 108.506 99.8269 108.74 101.234C109.491 104.142 110.101 107.097 111.601 109.724C112.539 111.272 112.586 113.288 111.461 114.742C108.787 117.932 104.66 119.48 102.268 122.904C100.86 124.733 100.11 126.891 99.3595 129.048C98.6559 129.564 98.1868 128.72 97.7647 128.251C95.7009 125.53 94.5284 122.2 94.0124 118.87C93.4027 114.508 95.0443 109.865 93.1681 105.69C92.2301 102.876 89.5097 100.859 89.5565 97.7632C89.5097 95.5586 91.292 94.0109 93.0275 93.0258V93.0258Z" fill="#435268" stroke="#99CC99" stroke-width="0.0331"/>
<path fill-rule="evenodd" clip-rule="evenodd" d="M106.723 95.934C110.194 93.4949 115.401 92.6506 118.825 95.4649C118.356 98.1384 118.59 100.906 119.294 103.486C119.95 106.018 119.388 108.645 118.59 111.084C118.027 112.585 118.309 114.32 119.434 115.493C121.404 117.557 124.547 117.604 126.611 119.574C129.472 121.778 130.316 125.484 132.568 128.204C131.02 130.268 129.8 132.66 129.706 135.286C129.566 138.429 129.566 141.572 129.425 144.714C128.722 144.761 128.018 144.761 127.361 144.808C126.986 142.744 126.798 140.399 125.157 138.851C123.656 137.35 121.498 137.116 119.481 136.975C119.341 132.801 118.074 128.72 115.682 125.296C115.682 122.998 116.526 120.652 115.588 118.401C115.166 116.9 113.806 116.056 112.446 115.446C112.962 114.32 113.525 113.101 113.337 111.834C113.149 109.958 112.164 108.27 111.508 106.534C110.663 104.564 110.382 102.407 109.725 100.39C109.256 98.5605 107.099 97.8101 106.723 95.934V95.934Z" fill="#435268" stroke="#99CC99" stroke-width="0.0331"/>
<path fill-rule="evenodd" clip-rule="evenodd" d="M127.971 101.046C128.393 100.202 129.378 99.8739 130.129 99.4518C130.785 101.703 131.723 104.048 133.787 105.362C135.992 106.816 138.712 106.534 141.245 106.91C142.84 107.144 143.262 109.067 143.309 110.427C143.449 111.975 142.089 112.96 141.479 114.227C140.307 116.478 139.791 118.964 139.228 121.403C138.431 121.497 137.68 121.637 136.93 121.778C136.132 123.138 135.335 124.498 134.397 125.718C133.553 120.652 132.802 115.493 130.926 110.662C129.988 107.425 128.205 104.424 127.971 101.046V101.046Z" fill="#435268" stroke="#99CC99" stroke-width="0.0331"/>
<path fill-rule="evenodd" clip-rule="evenodd" d="M75.3916 102.125C76.5641 100.953 78.112 99.6863 79.8943 100.015C81.958 100.765 82.5679 103.11 83.6935 104.799C85.8511 107.894 89.5097 109.442 92.9805 110.521C92.7929 113.757 92.4177 116.994 93.1213 120.183C93.7779 123.467 95.1381 126.609 97.1549 129.33C97.7179 129.986 98.5152 130.877 99.5002 130.502C101.236 128.673 101.376 125.952 102.877 123.936C104.894 120.559 108.693 119.105 111.461 116.525C112.493 116.9 113.853 117.088 114.322 118.213C115.354 120.324 114.65 122.622 114.416 124.78C114.134 125.812 115.119 126.562 115.541 127.406C117.652 130.549 118.121 134.395 118.403 138.101C120.279 138.288 122.249 138.148 123.89 139.18C125.297 140.68 125.907 142.697 126.095 144.761C123.281 144.714 120.232 144.761 117.84 146.45C114.885 148.795 112.868 152.172 111.555 155.643C110.147 155.69 108.74 155.784 107.333 155.83C107.286 152.172 104.941 149.17 102.502 146.684C103.956 145.746 106.583 144.761 105.973 142.603C104.613 140.915 102.221 140.774 100.251 140.305C98.8904 136.037 96.8736 132.05 94.3408 128.392C91.808 124.733 87.5866 122.575 83.2244 121.966C81.3483 121.825 79.1439 121.731 77.7367 123.232C76.0481 125.108 76.0481 127.782 76.0481 130.174C76.095 132.519 75.4853 134.958 73.8437 136.694C72.7179 138.007 71.0763 138.71 69.5285 139.367C68.5904 137.632 67.6992 135.849 66.1046 134.583C63.2433 132.238 60.6168 129.236 59.6317 125.624C58.975 123.373 60.0069 120.887 61.93 119.62C65.6824 117.135 69.4816 114.789 73.187 112.257C72.5773 110.943 71.8267 109.63 72.0145 108.129C72.3427 105.784 73.8437 103.861 75.3916 102.125V102.125Z" fill="#435268" stroke="#99CC99" stroke-width="0.0331"/>
<path fill-rule="evenodd" clip-rule="evenodd" d="M95.6072 141.993C98.6559 141.196 102.033 141.29 104.8 142.884C104.894 143.447 104.707 143.869 104.238 144.104C103.065 144.995 101.705 145.558 100.485 146.449C103.206 148.935 105.973 151.89 106.207 155.783C102.549 156.627 98.8904 157.847 95.9355 160.192C92.0893 163.334 87.6804 165.867 82.9431 167.321C77.6899 168.916 73.8906 173.419 71.8737 178.297C70.4666 181.674 70.4666 185.661 72.3428 188.85C74.4065 192.368 75.7199 196.308 76.2827 200.295C73.9374 200.717 71.6392 201.514 69.2471 201.28C66.5735 200.811 64.3222 199.169 61.9769 197.856C63.1964 196.824 64.416 195.839 65.6355 194.807C64.0876 192.978 62.4929 191.102 62.2115 188.71C63.1496 188.24 64.6036 188.053 64.7912 186.74C65.0258 184.441 63.384 182.518 62.2115 180.642C63.1027 177.734 66.339 176.796 68.2153 174.685C71.3109 171.12 73.234 166.665 76.5172 163.287C77.5023 162.162 79.1439 162.443 80.504 162.162C82.005 159.629 82.7086 156.393 85.2883 154.657C87.5397 153.016 90.2132 152.171 92.746 151.186C92.0893 149.263 90.7292 147.34 91.0575 145.183C91.5735 143.119 93.7311 142.321 95.6072 141.993V141.993Z" fill="#435268" stroke="#99CC99" stroke-width="0.0331"/>
<path fill-rule="evenodd" clip-rule="evenodd" d="M112.915 155.642C114.65 151.562 117.324 146.684 122.202 146.074C125.251 145.839 128.393 145.886 131.489 146.168C132.192 147.856 132.521 149.686 132.849 151.515C129.8 154.564 126.517 157.519 122.718 159.629C119.622 157.941 116.479 156.158 112.915 155.642V155.642Z" fill="#435268" stroke="#99CC99" stroke-width="0.0331"/>
<path fill-rule="evenodd" clip-rule="evenodd" d="M21.6863 150.905C23.7501 150.905 24.4537 154.798 22.2961 154.939C20.6545 154.235 20.9359 152.172 21.6863 150.905Z" fill="#435268" stroke="#99CC99" stroke-width="0.0331"/>
<path fill-rule="evenodd" clip-rule="evenodd" d="M52.8775 151.374C53.2996 150.765 54.6599 151.374 54.097 152.078C53.628 152.688 52.2678 152.125 52.8775 151.374Z" fill="#435268" stroke="#99CC99" stroke-width="0.0331"/>
<path fill-rule="evenodd" clip-rule="evenodd" d="M45.7012 151.469C46.3579 151.422 46.9676 151.422 47.5773 151.422C47.4836 152.548 47.9057 153.767 47.296 154.752C46.78 155.127 46.1702 154.799 45.7012 154.611C45.7012 153.58 45.7012 152.501 45.7012 151.469V151.469Z" fill="#435268" stroke="#99CC99" stroke-width="0.0331"/>
<path fill-rule="evenodd" clip-rule="evenodd" d="M124.219 160.099C127.455 158.035 130.316 155.549 133.13 152.97C135.054 159.489 140.307 164.414 146.076 167.698C149.875 169.668 154.05 170.934 157.99 172.622C160.429 173.795 163.149 173.138 165.729 173.138C171.92 172.81 178.158 172.904 184.303 173.092C186.554 174.217 188.196 176.234 189.837 178.063C188.993 180.596 187.774 183.504 189.04 186.131C189.791 187.585 190.635 189.461 189.509 190.962C187.539 194.198 185.804 197.529 183.974 200.859C182.755 203.345 182.286 206.393 183.505 208.973C184.584 211.131 186.742 212.491 188.759 213.664C191.714 215.211 195.185 216.243 198.515 215.446C200.391 215.118 202.22 214.273 204.143 214.602C205.363 214.836 206.019 215.962 206.676 216.9C206.066 217.557 205.503 218.307 204.612 218.682C201.188 220.277 197.577 222.669 196.545 226.562C196.216 228.298 194.293 228.72 193.027 229.611C190.776 231.065 187.961 230.08 185.475 230.268C183.693 230.08 182.145 231.393 180.363 231.018C178.534 230.408 177.689 228.485 176.986 226.797C173.421 216.853 169.903 206.863 166.667 196.731C165.823 193.682 165.916 190.118 167.699 187.397C168.308 186.365 169.247 185.38 169.153 184.114C169.059 183.27 168.262 182.613 167.464 182.472C164.369 182.238 161.32 182.379 158.224 182.285C152.971 182.097 150.204 175.812 144.856 175.953C144.997 177.219 145.326 178.439 145.654 179.611C143.121 180.08 140.963 178.532 139.228 176.891C137.164 174.968 135.288 172.904 133.412 170.793C134.538 169.808 136.226 168.87 136.226 167.182C136.179 165.305 134.397 164.227 132.849 163.523C129.988 162.351 126.986 161.506 124.219 160.099V160.099Z" fill="#435268" stroke="#99CC99" stroke-width="0.0331"/>
<path fill-rule="evenodd" clip-rule="evenodd" d="M95.701 161.834C98.9843 159.254 102.971 157.425 107.146 157.003C110.429 156.909 113.9 156.44 116.995 157.8C119.716 159.114 122.249 160.802 125.11 161.928C127.596 163.054 130.316 163.71 132.849 164.883C133.834 165.446 135.241 166.243 134.96 167.603C134.444 169.057 132.896 169.667 131.77 170.511C134.397 173.888 137.258 177.078 140.729 179.564C142.23 180.783 144.434 181.299 146.217 180.361C147.296 179.611 146.639 178.204 146.592 177.172C148.937 178.485 151.048 180.08 153.205 181.628C154.753 182.847 156.723 183.504 158.693 183.504C161.742 183.457 164.791 183.504 167.839 183.692C167.933 185.474 166.479 186.74 165.823 188.335C164.322 191.806 164.931 195.746 166.104 199.217C169.153 208.551 172.389 217.838 175.766 227.031C176.564 229.141 177.783 231.44 180.035 232.143C181.582 232.659 183.083 231.768 184.537 231.487C186.601 231.299 188.665 231.581 190.729 231.581C189.04 238.006 183.834 242.556 178.627 246.168C176.095 247.903 173.233 249.17 170.279 250.014C164.509 251.796 159.35 255.924 156.911 261.505C155.785 264.132 155.504 267.087 155.644 269.901C155.832 271.637 154.284 272.715 152.971 273.466C150.25 275.061 147.718 276.984 145.701 279.376C144.856 280.408 143.543 280.736 142.417 281.252C137.539 283.316 132.849 286.505 130.457 291.336C127.08 291.899 123.046 290.82 120.279 293.353C114.463 298.184 106.583 299.92 99.1719 299.357C96.7328 298.935 93.8717 298.606 92.1363 296.59C90.9637 294.854 92.4177 292.79 93.3089 291.289C98.5622 284.019 100.063 273.982 96.2639 265.727C95.3727 264.038 96.6391 262.209 97.5771 260.802C100.532 257.19 103.722 253.813 106.677 250.201C108.506 247.997 109.491 245.089 109.491 242.228C109.585 239.695 108.553 237.256 108.787 234.723C108.881 231.721 111.414 229.329 110.992 226.28C110.757 223.325 108.131 221.496 105.879 220.042C102.596 217.134 100.344 213.288 98.7498 209.301C97.7647 206.862 95.2788 205.127 92.6053 205.174C90.2132 204.892 87.9618 205.877 85.5697 206.018C82.6147 206.252 80.0819 204.235 78.3933 202.031C77.7367 201.28 77.5491 200.296 77.3615 199.357C76.7048 195.558 75.5322 191.853 73.5622 188.57C71.8268 185.943 71.5923 182.519 72.671 179.564C73.9844 175.718 76.5172 172.247 79.9882 170.042C82.005 168.729 84.4441 168.26 86.6485 167.275C89.8849 165.868 92.9336 164.039 95.701 161.834V161.834Z" fill="#435268" stroke="#99CC99" stroke-width="0.0331"/>
<path fill-rule="evenodd" clip-rule="evenodd" d="M51.5642 182.472C53.8626 181.674 55.8794 183.597 57.2397 185.192C58.3653 186.459 58.1308 188.147 57.9432 189.695C58.9751 189.46 59.9601 189.179 60.992 188.898C61.4141 191.055 62.5398 192.978 63.947 194.667C62.3991 195.839 60.7575 197.059 59.9601 198.888C63.3372 199.357 65.7762 202.171 69.1533 202.547C71.6392 202.734 74.0782 201.89 76.5172 201.468C78.1588 203.766 80.0819 206.111 82.8493 206.956C86.2733 208.128 89.6034 205.877 93.0744 206.487C95.0912 206.721 96.8736 208.081 97.671 209.957C99.2657 213.851 101.423 217.603 104.472 220.511C106.583 221.871 109.209 223.231 109.772 225.905C110.476 228.86 108.084 231.158 107.755 233.926C107.146 236.88 108.412 239.742 108.224 242.697C108.131 245.464 107.005 248.137 105.223 250.154C102.596 253.156 99.9693 256.158 97.3895 259.16C96.1231 260.567 95.1382 262.209 94.716 264.038C94.3878 265.07 95.0912 266.102 95.4196 267.087C98.0931 273.513 97.624 281.017 94.4346 287.162C93.262 289.741 90.8699 291.805 90.4947 294.76C90.2601 296.824 91.8549 298.606 93.7311 299.31C99.2657 301.327 105.316 300.811 110.992 299.497C114.228 298.559 117.418 297.152 120.044 294.995C121.123 294.197 122.155 293.165 123.562 293.025C125.673 292.743 127.83 292.743 129.941 292.556C128.675 296.73 127.924 301.139 127.924 305.548C127.877 307.377 127.924 309.488 126.658 310.942C125.485 312.068 123.703 312.115 122.296 311.599C116.526 309.394 110.476 307.94 104.331 307.753C101.142 307.659 98.1868 308.878 95.3258 310.098C91.5735 310.332 87.2582 310.661 84.6786 313.803C83.8811 313.053 82.9431 312.49 82.2865 311.646C81.6298 310.567 81.2546 309.3 80.3164 308.503C78.8155 307.19 76.7048 306.392 76.142 304.329C77.2208 303.625 78.3933 302.968 79.5191 302.312C78.3933 300.858 76.9863 299.169 77.596 297.199C78.3933 294.291 81.8643 293.588 83.2245 291.055C82.0988 289.132 80.0819 287.349 80.3164 284.957C80.7386 282.987 82.9431 282.471 84.3502 281.299C86.3672 279.938 87.1176 277.406 86.8361 275.06C86.4609 269.807 88.1964 264.507 91.5735 260.426C94.0124 257.565 96.217 254.423 97.4834 250.858C98.9374 246.918 98.5622 242.697 99.3126 238.616C99.8754 237.49 101.142 236.787 101.33 235.426C102.08 231.533 102.643 227.312 100.907 223.607C99.4065 220.464 96.9674 217.556 93.5903 216.43C91.5265 215.68 89.2752 215.961 87.1645 216.149C83.2245 216.571 79.2376 216.196 75.3447 215.68C73.187 215.398 71.264 214.038 70.0445 212.209C68.5905 210.051 66.5267 208.128 63.9 207.565C60.9451 207.049 57.8494 207.425 54.8945 206.815C52.8306 206.205 54.0502 203.813 54.1909 202.359C47.3898 201.796 40.7764 200.155 33.9283 199.779C33.6468 196.684 33.2716 193.447 34.2566 190.492C34.7726 188.804 36.6018 188.053 38.2436 188.053C41.0108 188.053 43.8251 188.053 46.4986 187.303C48.3748 185.896 49.5004 183.644 51.5642 182.472V182.472Z" fill="#435268" stroke="#99CC99" stroke-width="0.0331"/>
<path fill-rule="evenodd" clip-rule="evenodd" d="M12.9621 208.128C17.418 206.909 21.9208 204.423 24.1252 200.248C30.2229 200.717 36.3672 200.905 42.371 201.937C45.795 202.453 49.1721 203.11 52.5961 203.344C52.2208 205.033 52.2677 207.331 54.2847 207.941C57.3334 208.597 60.5698 208.175 63.6654 208.832C65.87 209.488 67.6992 210.989 69.0125 212.819C69.9038 214.085 71.0294 215.258 72.4366 215.961C74.5941 217.134 77.0801 216.993 79.4721 217.321C83.0837 217.697 86.6954 217.368 90.2601 217.134C94.4345 216.852 97.8585 220.089 99.594 223.56C101.423 227.031 101.001 231.111 100.204 234.77C99.9692 236.224 98.3745 236.974 98.093 238.381C97.6709 240.727 97.5302 243.119 97.3894 245.511C97.2018 249.122 95.7478 252.593 93.7778 255.595C92.1362 258.269 89.6973 260.379 88.29 263.194C86.3671 266.664 85.4759 270.651 85.6165 274.591C85.7104 276.233 85.7572 278.015 84.7253 279.376C83.4121 281.392 80.2694 281.392 79.3784 283.831C78.3465 286.552 80.4572 289.038 81.958 291.102C80.035 292.931 77.1269 294.057 76.4234 296.824C75.8137 298.606 76.7517 300.342 77.5959 301.796C76.6579 302.499 75.3446 302.968 75.0162 304.235C75.0162 306.533 77.3145 307.706 78.9562 308.925C80.4102 309.769 80.5978 311.552 81.5828 312.818C82.5209 313.803 83.6935 314.507 84.8661 315.21C86.0856 317.227 87.8679 318.869 89.0406 320.933C86.9299 322.856 83.7873 323.512 81.02 322.762C78.4872 321.73 77.0801 319.197 75.2038 317.274C71.217 312.396 66.3859 308.315 62.0708 303.719C60.8511 302.405 59.5379 301.233 58.3183 299.966C57.7086 299.544 57.6618 298.747 57.5679 298.09C57.0051 292.79 57.0051 287.443 57.1927 282.096C57.2864 277.687 55.5042 273.325 52.5023 270.135C48.8906 266.477 44.4817 263.803 40.5418 260.473C38.9 258.972 36.5549 259.066 34.4911 259.066C33.6 257.659 33.6468 255.267 31.7237 254.798C29.1441 253.86 25.6262 254.939 23.7031 252.5C22.9996 250.576 23.0466 248.278 21.5924 246.636C19.9977 244.573 17.1366 244.807 14.7914 244.573C13.6657 244.573 12.9153 243.306 13.1029 242.227C13.525 238.194 16.3392 234.019 14.3693 230.032C13.8533 228.297 13.4781 226.515 12.9153 224.779C14.0409 224.216 15.3073 223.935 16.2924 223.138C17.5119 221.684 17.3711 219.62 17.2304 217.837C17.0428 215.82 15.6825 213.804 13.6188 213.382C10.8514 212.866 7.6619 213.757 5.22295 211.881C4.42561 211.177 3.0184 210.286 3.5344 209.066C6.63003 208.316 9.86646 208.973 12.9621 208.128V208.128Z" fill="#435268" stroke="#99CC99" stroke-width="0.0331"/>
<path fill-rule="evenodd" clip-rule="evenodd" d="M127.877 223.7C128.252 224.451 128.581 225.248 128.909 225.998C128.44 225.998 127.408 226.045 126.892 226.045C127.221 225.248 127.549 224.451 127.877 223.7Z" fill="#435268" stroke="#99CC99" stroke-width="0.0331"/>
<path fill-rule="evenodd" clip-rule="evenodd" d="M192.276 231.252C193.73 230.314 195.184 229.376 196.779 228.766C199.64 229.423 202.313 230.595 205.221 231.018C206.488 231.252 208.036 231.205 209.021 232.284C210.944 234.16 211.788 236.74 213.054 239.085C214.086 240.914 214.227 243.259 213.289 245.183C211.694 248.419 209.912 251.608 208.645 255.033C208.223 256.158 207.848 257.518 208.505 258.597C209.677 260.755 212.445 261.177 213.852 263.1C214.227 264.273 213.993 265.539 214.508 266.665C215.447 268.728 217.276 270.182 219.152 271.355C223.045 273.653 227.36 275.154 231.347 277.218C228.298 278.391 225.437 279.985 222.951 282.002C218.683 285.708 214.18 289.085 209.724 292.556C209.021 290.961 208.505 289.226 207.285 287.959C205.972 286.317 204.049 285.379 202.22 284.488C203.955 281.393 207.707 280.642 210.193 278.344C210.193 277.406 209.115 277.546 208.505 277.312C203.533 276.468 198.561 275.014 193.449 275.483C191.713 275.576 190.071 276.139 188.336 276.468C187.163 275.295 186.413 273.653 185.006 272.668C183.083 271.12 180.409 270.698 178.017 271.261C175.203 271.777 172.436 272.481 169.715 273.372C172.389 269.057 175.625 265.117 178.205 260.802C180.269 257.284 183.364 254.376 187.023 252.687C188.758 251.984 190.259 250.342 190.025 248.372C189.79 245.605 187.539 243.775 185.85 241.852C188.101 239.554 190.118 236.927 191.15 233.832C191.572 232.988 191.666 231.956 192.276 231.252V231.252Z" fill="#435268" stroke="#99CC99" stroke-width="0.0331"/>
<path fill-rule="evenodd" clip-rule="evenodd" d="M175.344 249.451C178.909 247.81 181.958 245.23 184.959 242.697C186.554 244.432 188.805 246.168 188.759 248.794C188.712 250.577 186.929 251.421 185.616 252.172C182.333 253.907 179.518 256.487 177.548 259.676C174.875 264.085 171.732 268.166 168.824 272.434C168.215 273.278 167.652 274.31 166.573 274.451C160.194 275.811 153.862 277.359 147.624 279.001C149.594 276.655 152.267 275.108 154.894 273.56C156.348 272.763 157.098 271.074 156.817 269.479C156.16 262.537 160.569 256.018 166.526 252.828C169.293 251.28 172.53 250.858 175.344 249.451V249.451Z" fill="#435268" stroke="#99CC99" stroke-width="0.0331"/>
<path fill-rule="evenodd" clip-rule="evenodd" d="M168.308 275.249C172.201 273.935 176.141 272.434 180.315 272.2C183.224 272.2 185.709 274.357 187.023 276.796C188.101 279.095 188.242 281.674 188.571 284.207C188.711 285.192 189.743 285.802 190.681 285.849C193.026 285.943 195.325 285.145 197.67 285.052C200.578 285.286 203.627 285.943 205.784 288.053C207.332 289.367 207.848 291.431 208.599 293.26C206.253 295.652 204.987 298.982 205.55 302.265C206.3 307.003 206.816 312.397 204.049 316.618C202.783 318.916 200.859 320.793 198.467 321.871C194.715 323.607 191.385 326.28 188.758 329.47C187.117 331.44 185.428 333.316 183.458 334.958C180.878 337.209 177.548 338.522 175.484 341.337C172.717 339.085 168.965 337.959 167.135 334.723C166.526 334.019 166.338 332.706 165.259 332.8C163.43 332.706 161.601 332.659 159.771 332.847C158.786 333.175 157.989 333.879 157.145 334.395C155.128 335.755 152.736 336.459 150.672 337.819C146.685 339.882 142.135 341.055 137.633 340.68C130.644 339.601 125.156 333.973 117.933 333.644C115.072 333.55 112.211 332.8 109.725 331.299C110.006 329.376 110.569 327.5 111.413 325.811C112.211 324.076 113.43 322.622 113.993 320.839C111.507 320.558 108.646 322.012 106.395 320.37C104.894 318.916 104.612 316.665 103.346 314.976C102.079 312.772 99.9218 311.271 97.6235 310.286C99.8749 309.395 102.314 308.785 104.8 308.926C110.335 309.207 115.775 310.521 120.935 312.444C122.811 313.147 125.203 313.522 126.939 312.209C128.674 311.083 129.002 308.832 129.049 306.909C129.049 301.984 129.659 296.965 131.441 292.322C133.036 288.147 136.695 285.098 140.728 283.316C143.918 281.862 147.201 280.69 150.484 279.517C156.394 277.969 162.351 276.609 168.308 275.249V275.249Z" fill="#435268" stroke="#99CC99" stroke-width="0.0331"/>
<path fill-rule="evenodd" clip-rule="evenodd" d="M188.759 277.641C191.058 277.078 193.403 276.468 195.795 276.562C199.876 276.656 203.816 277.687 207.802 278.485C205.457 280.408 202.174 281.346 200.908 284.348C197.202 283.128 193.544 284.958 189.791 284.489C189.51 282.19 189.275 279.892 188.759 277.641V277.641Z" fill="#435268" stroke="#99CC99" stroke-width="0.0331"/>
<path fill-rule="evenodd" clip-rule="evenodd" d="M223.234 283.315C226.048 280.923 229.378 279.141 232.896 278.062C234.209 280.642 234.725 283.878 237.164 285.754C239.134 287.208 241.714 286.411 243.871 285.848C244.106 288.897 246.029 291.476 246.639 294.478C247.671 298.606 246.357 302.874 244.903 306.767C244.059 308.878 244.669 311.176 245.372 313.24C241.808 314.084 238.712 316.148 235.945 318.493C233.318 320.791 231.536 323.793 229.19 326.279C227.971 327.499 226.376 328.296 225.204 329.516C225.204 330.548 226.048 331.204 226.751 331.814C228.393 332.986 230.222 333.831 232.052 334.722C225.673 339.459 218.496 343.071 210.757 344.806C206.395 345.791 202.455 348.136 199.078 350.998C196.873 352.921 194.059 354.187 191.104 354.234C188.102 354.234 185.147 353.671 182.146 353.859C179.331 354 176.611 354.891 174.078 356.016C172.765 353.906 171.967 351.232 172.999 348.934C173.937 346.682 176.799 345.416 176.376 342.649C177.455 339.647 180.973 338.615 183.224 336.598C187.68 333.409 190.401 328.39 194.903 325.294C197.296 323.512 200.344 322.808 202.502 320.698C205.879 317.414 207.427 312.536 207.286 307.893C207.38 304.422 205.926 300.81 207.333 297.386C208.177 294.854 210.569 293.446 212.586 291.852C216.151 288.991 219.81 286.317 223.234 283.315V283.315Z" fill="#435268" stroke="#99CC99" stroke-width="0.0331"/>
<path fill-rule="evenodd" clip-rule="evenodd" d="M148.327 311.365C148.656 310.614 148.984 309.864 149.359 309.113C149.734 309.864 150.063 310.614 150.391 311.365C149.687 311.365 149.031 311.365 148.327 311.365Z" fill="#435268" stroke="#99CC99" stroke-width="0.0331"/>
<path fill-rule="evenodd" clip-rule="evenodd" d="M236.789 319.338C239.462 317.04 242.464 315.07 245.935 314.366C247.014 317.791 246.31 321.777 243.683 324.357C240.259 327.547 236.695 330.642 233.224 333.785C230.832 332.8 228.393 331.674 226.376 329.939C227.548 329.094 228.721 328.297 229.8 327.359C232.286 324.826 234.068 321.637 236.789 319.338V319.338Z" fill="#435268" stroke="#99CC99" stroke-width="0.0331"/>
<path fill-rule="evenodd" clip-rule="evenodd" d="M152.033 338.428C154.753 337.209 157.38 335.849 159.772 334.113C161.554 333.644 163.477 334.019 165.354 333.926C166.667 336.177 168.355 338.335 170.748 339.507C172.624 340.539 174.969 341.665 175.344 343.963C173.843 346.027 171.451 347.809 171.404 350.623C171.076 353.25 172.483 355.595 173.703 357.847C171.123 358.456 168.496 358.691 165.916 359.113C162.961 359.676 159.96 358.972 157.005 358.832C157.192 357.096 157.521 354.985 156.207 353.578C154.706 352.312 152.549 352.453 150.954 351.374C150.204 350.952 149.547 350.107 149.781 349.216C150.25 347.059 151.517 345.136 151.986 342.978C152.314 341.477 152.08 339.929 152.033 338.428V338.428Z" fill="#435268" stroke="#99CC99" stroke-width="0.0331"/>
</svg>
