<svg width="275" height="78" viewBox="0 0 275 78" fill="none" xmlns="http://www.w3.org/2000/svg">
<g clip-path="url(#clip0)">
<rect x="128.979" y="43" width="139.041" height="6" fill="#BBC1C7"/>
<circle cx="129" cy="46" r="3" fill="#BBC1C7"/>
<circle cx="268" cy="46" r="3" fill="#BBC1C7"/>
<rect x="177" y="55" width="91" height="6" fill="#FDB5A2"/>
<circle cx="177" cy="58" r="3" fill="#FDB5A2"/>
<circle cx="268" cy="58" r="3" fill="#FDB5A2"/>
<rect x="226" y="67" width="42" height="6" fill="#435268"/>
<circle cx="226" cy="70" r="3" fill="#435268"/>
<circle cx="268" cy="70" r="3" fill="#435268"/>
<path d="M9.36 33.872C10.56 36.464 13.68 38.576 17.856 38.576C24.96 38.576 29.952 32.912 29.952 26.048C29.952 19.136 24.96 13.472 17.856 13.472C13.68 13.472 10.512 15.728 9.12 18.176V14.048H3.312V48.032H9.36V33.872ZM23.904 26.048C23.904 30.224 20.976 33.584 16.656 33.584C12.72 33.584 9.36 30.656 9.36 26.048C9.36 21.44 12.72 18.464 16.656 18.464C20.976 18.464 23.904 21.872 23.904 26.048ZM54.3413 14.048V18.176C53.1413 15.632 49.8773 13.472 45.7013 13.472C38.5973 13.472 33.6053 19.136 33.6053 26.048C33.6053 32.912 38.5973 38.576 45.7013 38.576C49.8773 38.576 53.0453 36.32 54.4373 33.872V38H60.2453V14.048H54.3413ZM39.6533 26.048C39.6533 21.872 42.5333 18.464 46.8533 18.464C50.8373 18.464 54.1973 21.44 54.1973 26.048C54.1973 30.656 50.8373 33.584 46.8533 33.584C42.5333 33.584 39.6533 30.224 39.6533 26.048ZM72.9225 24.608C72.9225 21.152 75.1785 18.752 78.4905 18.752C82.0905 18.752 83.6265 21.248 83.6265 24.656V38H89.6745V23.648C89.6745 17.696 86.4585 13.472 80.6985 13.472C76.9545 13.472 73.8345 15.344 72.7305 18.128V14.048H66.8745V38H72.9225V24.608ZM106.446 13.472C99.3416 13.472 94.5896 18.8 94.5896 25.472C94.5896 32.096 99.3416 37.424 106.446 37.424C110.382 37.424 113.454 35.408 114.846 33.008V37.664C114.846 41.648 111.918 43.904 107.79 43.904C104.382 43.904 102.126 42.656 100.974 40.352H94.9736C96.7976 45.824 101.646 48.56 107.838 48.56C115.278 48.56 120.894 43.856 120.894 37.664V14.048H114.942V18.272C113.79 15.584 110.574 13.472 106.446 13.472ZM107.598 32.432C103.326 32.432 100.59 29.456 100.59 25.472C100.59 21.44 103.326 18.464 107.598 18.464C111.582 18.464 114.846 21.248 114.846 25.472C114.846 29.648 111.582 32.432 107.598 32.432ZM146.779 14.048V18.176C145.579 15.632 142.315 13.472 138.139 13.472C131.035 13.472 126.043 19.136 126.043 26.048C126.043 32.912 131.035 38.576 138.139 38.576C142.315 38.576 145.483 36.32 146.875 33.872V38H152.683V14.048H146.779ZM132.091 26.048C132.091 21.872 134.971 18.464 139.291 18.464C143.275 18.464 146.635 21.44 146.635 26.048C146.635 30.656 143.275 33.584 139.291 33.584C134.971 33.584 132.091 30.224 132.091 26.048ZM183.024 28.064V26.096C183.024 18.704 177.984 13.472 170.448 13.472C163.056 13.472 157.824 18.752 157.824 26C157.824 33.152 162.576 38.576 170.736 38.576C176.448 38.576 181.056 35.264 182.688 30.992H177.072C175.92 32.816 173.664 34.112 170.736 34.112C166.464 34.112 164.16 31.664 163.776 28.064H183.024ZM170.544 17.792C174.432 17.792 176.88 20.384 177.264 24.08H163.728C164.208 20.192 166.8 17.792 170.544 17.792ZM207.435 14.048V18.176C206.235 15.632 202.971 13.472 198.795 13.472C191.691 13.472 186.699 19.136 186.699 26.048C186.699 32.912 191.691 38.576 198.795 38.576C202.971 38.576 206.139 36.32 207.531 33.872V38H213.339V14.048H207.435ZM192.747 26.048C192.747 21.872 195.627 18.464 199.947 18.464C203.931 18.464 207.291 21.44 207.291 26.048C207.291 30.656 203.931 33.584 199.947 33.584C195.627 33.584 192.747 30.224 192.747 26.048Z" fill="#435268"/>
<path d="M219.344 34.784C219.344 36.848 220.88 38.432 223.088 38.432C225.296 38.432 226.832 36.848 226.832 34.784C226.832 32.672 225.296 31.088 223.088 31.088C220.88 31.088 219.344 32.672 219.344 34.784Z" fill="#BBC1C7"/>
<path d="M252.06 14.048V18.176C250.86 15.632 247.596 13.472 243.42 13.472C236.316 13.472 231.324 19.136 231.324 26.048C231.324 32.912 236.316 38.576 243.42 38.576C247.596 38.576 250.764 36.32 252.156 33.872V38H257.964V14.048H252.06ZM237.372 26.048C237.372 21.872 240.252 18.464 244.572 18.464C248.556 18.464 251.916 21.44 251.916 26.048C251.916 30.656 248.556 33.584 244.572 33.584C240.252 33.584 237.372 30.224 237.372 26.048ZM270.833 38V14.048H264.785V38H270.833ZM264.209 6.464C264.209 8.48 265.793 10.016 267.809 10.016C269.873 10.016 271.409 8.48 271.409 6.464C271.409 4.496 269.873 2.912 267.809 2.912C265.793 2.912 264.209 4.496 264.209 6.464Z" fill="#FDB5A2"/>
<rect x="17" y="43" width="70" height="6" fill="#BBC1C7"/>
<circle cx="87" cy="46" r="3" fill="#BBC1C7"/>
<circle cx="17" cy="46" r="3" fill="#BBC1C7"/>
</g>
<defs>
<clipPath id="clip0">
<rect width="275" height="78" fill="white"/>
</clipPath>
</defs>
</svg>
